<svg xmlns="http://www.w3.org/2000/svg" viewBox="0 0 1024 1024">
  <rect width="1024" height="1024" fill="#F8F4EE"/>
  <svg x="262" y="269" width="500" height="486" viewBox="0 0 154 131" preserveAspectRatio="xMidYMid meet">
    <path d="m1444.59 496.544c-5.08-.143-7.91-4.973-12.46-5.964 1.27-6.98 9.12-8.434 14.99-5.884 4.8 1.265 12.21 2.535 4.51 5.764-2.14 1.881-3.88 6.988-7.04 6.084zm25.91-4.561c-6.05-3.286-11.72-6.177-18.4-7.774-11.62-4.201-24.39-2.426-36.53-2.824-8.65.417-18.08.486-26.11-2.353-4.16-1.436-9.8-3.462-14.28-5.861-7.16-3.699-13.75-8.811-18.61-15.487-7.51-6.827-10.68-17.103-9.94-27.014 0-5.048-.17-9.547 1.99-14.4 2.06-7.191 6.92-13.128 12.37-18.206 1.36-1.897 7.6-5.191 6.24-4.206 1.74 3.694.92 10.699 3.72 15.163 2.14 5.592 4.8 10.618 8.15 15.406 4.97 9.438 13.23 17.576 22.58 23.028 3.96 2.469 8.42 4.115 11.94 6.998 8.29 1.875 15.48 5.878 23.91 7.08 7.9.97 15.52 1.812 23.23-.057 10.89 2.815 11.96 18.142 23.09 20.824.62 3.405-3.22 6.249-5.88 8.163-2.23 1.207-4.94 1.762-7.47 1.52zm20.26-10.238c-6.95.574-12.09-5.208-15.94-11.103-1.46-5.049-14.4-11.048-2.81-11.96 9.44-2.793 19.18-4.196 28.28-8.365 12.09-4.219 24-9.635 33.73-18.217 7.72-7.514 16.55-15.071 19.46-25.886 1.28-3.222 1.82-6.99 3.19-9.926 4.99 5.863 10.87 11.547 13.77 18.986 4.26 11.508-2.22 23.204-8.75 32.354-8.43 13.012-21.29 23.117-36.14 27.789-11.22 3.623-23.03 5.76-34.79 6.327zm-49.8-21.479c-6.23-.574-11.54-3.417-17.49-5.012-5.52-2.006-11.68-4.573-15.9-7.824-6.31-1.64-10.75-6.936-15.99-10.449-8.3-8.452-13.66-19.404-18.76-29.814-4.4-11.914-2.38-25.001 1.15-36.813 1.67-4.385 3-8.578 6.08-12.397 3.06-2.987 5.42-6.737 9.07-9.085 4.73-4.903 11.27-7.064 17.39-10.048 7.61-2.715 15.52-4.956 23.59-5.663 2.5 5.952 3.06 13.288 7.5 18.59 4.72 7.488 14.52 9.33 22.76 10.049 4.7-.802 9.48-2.54 11.38-7.212 4.57-6.995 5.89-15.84 5.02-23.944 6.75-3.425 15.3-1.8 22.68-.967 16.21 3.184 32.08 10.068 43.78 22.104 10.01 7.7 14.01 20.975 12.08 33.129-1.13 10.563-3.01 21.602-8.56 30.394-5.04 7.593-12.1 13.666-19.07 19.582-10.7 7.976-23.47 12.432-35.92 16.953-6.04 1.672-12.42 2.353-18.29 4.829-9.58 3.28-.59-.427 1.62-4.381 2.91-5.27-4.41-8.749-2.13-13.486-2.26-5.715-5.9-11.274-11.84-13.581-4.19-2.458-12.54-8.187-6.85-.526 3.05 2.184 12.47 3.11 9.73 8.289-6.23 4.893-14.98 7.095-22.74 5.156-1.21 4.149 11.36 2.341 15.54.822 4.52-.619 9.4-6.992 12.27-4.083 3.82 5.046-.67 10.318-5.54 12.182-5.53 2.93-12.07 4.375-18.26 3.426 4.45 4.424 14.57.41 20.54-2.285 2.72.134 6.4-8.143 6.4-3.484 2.84 4.931-.08 9.608-4.7 11.616-7.91 4.482-17.72 3.869-26.54 3.931zm46.27-21.574c4.01-.269 7.73-9.983 2.51-4.435-3.61 7.062-8.21-8.054-6.64 2.301.57 1.506 2.46 3.071 4.13 2.134zm-5.3-6.93c-.25-3.529-13.1-6.523-14.87-13.307-4.51-6.681-5.44-15.02-5.88-22.684-3.51-11.671-2.72 5.471-3.71 9.623-1.27 6.379-6.98 10.762-12.72 13.138-4.8 1.326-10.82 3.572-16.2 2.59-.78 4.491 8.83 1.424 12.48.82 8.27-2.06 16.47-7.732 18.9-15.979 1.47 10.33 7.42 20.031 17.16 24.371 1.42.801 3.2 1.528 4.84 1.427zm13.21-.631c5.77-5.224 11.98-10.073 16.62-16.651 4.1-4.754 7.44-11.346 6.62-17.537-3.32-3.078.5-16.128-4.02-14.762-1.25 7.194 2.27 14.508 1 21.452-2.44 8.061-8.73 13.878-14.34 19.807-2.66 1.944-4.74 4.393-7.19 6.149-1.26.987-.04 2.276 1.31 1.543zm-69.87-4.943c5.81-4.318-.95-1.676-3.81-3.055-4.7-2.534-1.65-7.823-4.96-11.346-2.27-6.132-5.37-12.023-8.48-17.823-3.72.758 4.06 10.42 4.88 14.608 3.97 5.147 1.54 13.407 7.61 16.723 1.49.612 3.1 1.518 4.76.894zm34.17-66.853c-8.76-.956-19.17-3.412-22.76-12.578-1.71-5.455-5.05-11.935-3.59-17.243 10.18-8.58 25.85-11.567 38.1-5.306 6.23 5.072 3.65 15.114 2.25 21.99-1.6 4.342-3.55 9.171-7.53 11.843-2.13.529-4.25 1.272-6.47 1.293zm.34-4.62c6.6-3.318-6.61-1.357 0 0zm-3.05-1.86c4.11-.652 11.96-1.873 2.61-2.912-1.87-.73-7.38 3.196-2.61 2.912zm3.73-5.07c-2.92-3.171-3.54-9.014-4.93-14.222-.69-7.653-9.58-6.278-13.1-1.473-2.5 5.901 3.99-.981 6.55-1.477 6.22-1.39 4.51 8.563 6.45 12.176.09 2.47 2.27 5.832 5.03 4.996zm2.15-1.34c-.37-4.757-1.97-9.639-1.97-14.44.94-3.92 5.44-6.477 9.4-5.877-2.44-4.585-10.85.363-11.21 4.879-.09 4.643-.32 13.14 3.78 15.438zm-12.94-9.609c2.43-4.136-6.6-1.178 0 0zm16.54-3.272c2.62-3.783-6.78-1.428 0 0zm-63.78 4.259c1.78-5.155 4.39-10.413 8.11-14.42 8.9-8.453 20.33-13.766 32.33-16.111 8.3-2.031 17.91-1.271 24.87 4.076 4.64.366 10.11 15.943 3.48 10.778-8.05-4.086-18.09-4.026-26.59-1.411-6.51 2.186-12.08 5.661-16.68 10.802-8.72.768-17.54 3.649-25.52 6.286z" fill="#BFA063" fill-rule="nonzero" transform="matrix(.68351 0 0 .68351 -920.362 -209.3301)"/>
  </svg>
</svg>
